<?xml version="1.0" encoding="UTF-8"?>
<svg id="Layer_1" xmlns="http://www.w3.org/2000/svg" version="1.1" viewBox="0 0 169 28">
  <!-- Generator: Adobe Illustrator 29.6.1, SVG Export Plug-In . SVG Version: 2.1.1 Build 9)  -->
  <path d="M138.93,14.19c1.35-1.26,1.86-2.34,1.96-4.19.3-5.27-4.28-7.7-8.97-7.75-2.73-.03-5.5-.03-8.24,0-2.36.02-4.8-.07-7.15,0v5.57h2.15v14.04h-2.1v5.64h11.29c3.81,0,9.09.46,12.21-2.01,1.39-1.14,2.13-2.59,2.29-4.37.29-3.08-.71-5.42-3.45-6.92h0ZM125.09,7.83h3.88c1.05,0,2.2-.08,3.22.14,2.01.44,2.54,2.39,1.08,3.82-1.61,1.1-6.08.74-8.19.74v-4.7h0ZM134.91,21.15c-1.32.91-3.31.73-4.85.72h-4.98v-4.4h4.83c1.77-.01,5.58-.37,5.69,2.2.02.59-.28,1.08-.69,1.48h0Z" style="fill: #e9dded;"/>
  <path d="M168.97,15.82c-2.12.6-4.31,1.21-6.44,1.77-.23.54-.43,1-.79,1.47-1.73,2.27-5.3,3.09-7.89,1.96-1.49-.65-2.52-1.83-3.22-3.26,3.8.66,6.94.13,10.4-1.53,8.68-4.16,5.42-15.08-4.07-14.65-4.06.25-8.2,2.05-10.98,5.11-4.58,5-3.51,13.56,1.4,17.93,2.56,2.28,6.01,3.19,9.39,2.93,5.23-.41,9.78-2.96,11.71-7.98.42-1.44.51-2.2.47-3.73l.02-.02ZM156.33,7.54c1.15-.17,2.88.3,2.96,1.66.15,2.83-4.21,3.49-6.25,3.71-1.08.06-1.96.09-3.03,0,.93-3.13,3.09-4.92,6.33-5.37h-.01Z" style="fill: #e9dded;"/>
  <path d="M94.78,2.06c4.09-.37,6.35,2.94,6.98,6.57.85,5.29-.12,10.57-3.63,14.75-3.3,3.94-9.22,5.85-13.77,2.86-3.51-2.31-4.05-7.27-4.73-11.13l-1.16-6.59c-.05-.3,0-.29-.17-.47-.66-.07-2.82-.03-3.54-.02V2.42h9.57c.08.81.29,1.92.42,2.76l.83,5.17c.46,2.87.91,5.77,1.4,8.63.18.89.59,1.96,1.42,2.44,2.14,1.22,4.59-1.14,5.56-2.83,1.62-2.8,1.96-5.93,1.19-9.02-1.79-.25-3.36-1.01-3.7-2.96-.45-2.54.9-4.11,3.33-4.53v-.02Z" style="fill: #e9dded;"/>
  <path d="M103.48,9.36h9.94v11.77c0,1.68.09,4.64-.03,6.22h-7.21c-.05-4.06-.01-8.28,0-12.34-.91-.02-1.87,0-2.79,0,0-.61-.09-5.41.08-5.65h0Z" style="fill: #e9dded;"/>
  <path d="M108.79.27c2.96-.48,6.08,1.1,5.74,4.45-.24,2.38-1.68,3.43-3.85,3.79-1.5.15-2.88.03-4.18-.86-1.8-1.24-2.21-3.97-.93-5.72.78-1.07,1.95-1.49,3.22-1.66Z" style="fill: #e9dded;"/>
  <path d="M7.45,8.88v3.13h11.83v5.66H7.45v3.16h13.83v6.63H.02V2.25h21.25v6.63H7.45Z" style="fill: #e9dded;"/>
  <path d="M48.67,14.68c0,8.28-5.59,12.78-10.89,12.78h-13.52V2.25h13.8c6.19,0,10.6,4.72,10.6,12.42h.01ZM41.67,14.64c0-4.07-2.56-5.72-6.44-5.72h-4.03v11.88h4.32c3.53,0,6.16-2.38,6.16-6.16h-.01Z" style="fill: #e9dded;"/>
  <path d="M50.69,16.12V2.25h7.43v13.72c0,3.17,1.66,4.82,4.21,4.82s4.1-1.66,4.1-4.82V2.25h7.43v13.86c0,8.5-4.98,11.7-11.71,11.7s-11.46-3.2-11.46-11.7h0Z" style="fill: #e9dded;"/>
</svg>